<svg width="133" height="44" viewBox="0 0 133 44" fill="none" xmlns="http://www.w3.org/2000/svg">
<g clip-path="url(#clip0_1_790)">
<path d="M122.409 0.000143H10.5973C10.1897 0.000143 9.78703 0.000143 9.38054 0.002343C9.04027 0.004543 8.70271 0.010934 8.35918 0.016313C7.61286 0.025005 6.86829 0.0899869 6.13195 0.210694C5.39665 0.334029 4.68438 0.56655 4.01923 0.900394C3.3549 1.23706 2.74787 1.67453 2.22019 2.19692C1.68973 2.71784 1.24756 3.31996 0.910662 3.98012C0.572839 4.63896 0.338591 5.34498 0.216009 6.07377C0.0922621 6.80165 0.0256726 7.53792 0.0168384 8.27597C0.00652418 8.61323 0.00543496 8.95161 0 9.28892V34.7146C0.00543496 35.0562 0.00652418 35.387 0.0168384 35.7287C0.0256753 36.4667 0.0922648 37.2029 0.216009 37.9308C0.338253 38.66 0.572514 39.3664 0.910662 40.0255C1.2474 40.6835 1.68964 41.2832 2.22019 41.8012C2.74587 42.326 3.35329 42.7637 4.01923 43.0978C4.68437 43.4325 5.39656 43.6665 6.13195 43.7917C6.86842 43.9114 7.6129 43.9764 8.35918 43.9862C8.70271 43.9937 9.04027 43.9979 9.38054 43.9979C9.78701 44.0001 10.1897 44.0001 10.5973 44.0001H122.409C122.808 44.0001 123.214 44.0001 123.614 43.9979C123.952 43.9979 124.299 43.9937 124.638 43.9862C125.383 43.977 126.126 43.9119 126.861 43.7917C127.599 43.6656 128.314 43.4317 128.982 43.0978C129.647 42.7635 130.254 42.3258 130.779 41.8012C131.309 41.2812 131.752 40.6819 132.093 40.0255C132.428 39.3659 132.66 38.6596 132.781 37.9308C132.905 37.2028 132.974 36.4668 132.987 35.7287C132.991 35.387 132.991 35.0562 132.991 34.7146C133 34.315 133 33.9175 133 33.5114V10.4899C133 10.0871 133 9.68745 132.991 9.28892C132.991 8.95161 132.991 8.61323 132.987 8.27593C132.974 7.53781 132.905 6.8017 132.781 6.07373C132.66 5.34535 132.428 4.6394 132.093 3.98007C131.407 2.65686 130.319 1.57977 128.982 0.900295C128.314 0.567267 127.599 0.334807 126.861 0.210595C126.126 0.0893561 125.383 0.0243515 124.638 0.016159C124.299 0.010791 123.952 0.004345 123.614 0.0022C123.214 0 122.808 0 122.409 0V0.000143Z" fill="#A6A6A6"/>
<path d="M9.38441 43.0374C9.04578 43.0374 8.71532 43.0331 8.37934 43.0256C7.68333 43.0167 6.98895 42.9567 6.3019 42.8462C5.66125 42.737 5.04063 42.5339 4.46052 42.2435C3.88573 41.9556 3.36147 41.578 2.90783 41.1253C2.44763 40.6779 2.06449 40.159 1.77359 39.5891C1.47949 39.0156 1.27596 38.4008 1.17008 37.7662C1.05574 37.0843 0.993874 36.3948 0.985022 35.7037C0.977975 35.4717 0.96875 34.6993 0.96875 34.6993V9.28868C0.96875 9.28868 0.978575 8.52813 0.985077 8.30468C0.993553 7.61463 1.05506 6.92622 1.16905 6.24541C1.27513 5.60908 1.47882 4.99253 1.77308 4.4171C2.06291 3.84764 2.44392 3.32835 2.90135 2.87935C3.35827 2.42609 3.88421 2.04657 4.45998 1.75463C5.03876 1.46521 5.6582 1.26351 6.29755 1.1563C6.98687 1.04472 7.68366 0.984398 8.38208 0.975833L9.38495 0.962402H123.607L124.621 0.976372C125.313 0.984511 126.004 1.0443 126.687 1.15522C127.333 1.26377 127.959 1.46688 128.544 1.75786C129.697 2.34619 130.636 3.27698 131.228 4.41978C131.518 4.99124 131.718 5.60276 131.823 6.23359C131.938 6.91999 132.003 7.61381 132.016 8.30952C132.019 8.62104 132.019 8.95566 132.019 9.28868C132.028 9.70118 132.028 10.0938 132.028 10.4896V33.5112C132.028 33.9108 132.028 34.3008 132.019 34.6939C132.019 35.0516 132.019 35.3793 132.015 35.7166C132.002 36.3999 131.939 37.0813 131.825 37.7554C131.721 38.3946 131.519 39.0142 131.225 39.5924C130.932 40.1561 130.551 40.6705 130.096 41.1167C129.642 41.5719 129.117 41.9516 128.541 42.2414C127.957 42.534 127.332 42.7379 126.687 42.8462C126 42.9573 125.305 43.0173 124.609 43.0256C124.284 43.0331 123.943 43.0374 123.612 43.0374L122.407 43.0396L9.38441 43.0374Z" fill="black"/>
<path d="M27.5284 22.3308C27.5404 21.4127 27.7868 20.5125 28.2447 19.7139C28.7027 18.9154 29.3573 18.2444 30.1476 17.7635C29.6455 17.0539 28.9832 16.4698 28.2131 16.0578C27.4431 15.6458 26.5866 15.4172 25.7117 15.3901C23.8453 15.1962 22.0359 16.4954 21.0848 16.4954C20.1153 16.4954 18.651 15.4093 17.0742 15.4414C16.0542 15.4741 15.0602 15.7676 14.189 16.2935C13.3177 16.8193 12.599 17.5596 12.1028 18.4421C9.95324 22.1254 11.5566 27.5385 13.6157 30.5158C14.6459 31.9737 15.8499 33.6022 17.4253 33.5444C18.9669 33.4811 19.5427 32.5715 21.4036 32.5715C23.2472 32.5715 23.7874 33.5444 25.3948 33.5077C27.049 33.4811 28.0913 32.0433 29.0854 30.5717C29.8256 29.5329 30.3951 28.3848 30.773 27.1699C29.8119 26.7676 28.9918 26.0942 28.4148 25.2337C27.8378 24.3731 27.5295 23.3636 27.5284 22.3308Z" fill="white"/>
<path d="M24.4912 13.432C25.3931 12.3603 25.8375 10.9829 25.7299 9.59229C24.3519 9.73553 23.079 10.3873 22.1649 11.4179C21.7179 11.9213 21.3756 12.507 21.1575 13.1414C20.9393 13.7759 20.8497 14.4466 20.8937 15.1154C21.5829 15.1224 22.2648 14.9746 22.888 14.683C23.5111 14.3914 24.0593 13.9636 24.4912 13.432Z" fill="white"/>
<path d="M47.0143 29.8537H41.7534L40.49 33.5458H38.2617L43.2448 19.886H45.5599L50.543 33.5458H48.2766L47.0143 29.8537ZM42.2983 28.15H46.4684L44.4127 22.158H44.3552L42.2983 28.15Z" fill="white"/>
<path d="M61.303 28.5666C61.303 31.6614 59.6293 33.6498 57.1036 33.6498C56.4638 33.6829 55.8275 33.5371 55.2676 33.2289C54.7076 32.9207 54.2467 32.4628 53.9375 31.9074H53.8897V36.8402H51.8242V23.5865H53.8236V25.243H53.8615C54.1849 24.6902 54.6536 24.2346 55.2179 23.9246C55.7821 23.6146 56.4206 23.4617 57.0656 23.4823C59.6195 23.4823 61.303 25.4804 61.303 28.5666ZM59.18 28.5666C59.18 26.5503 58.1271 25.2247 56.5207 25.2247C54.9426 25.2247 53.8811 26.5782 53.8811 28.5666C53.8811 30.5732 54.9426 31.9171 56.5207 31.9171C58.1271 31.9171 59.18 30.6012 59.18 28.5666Z" fill="white"/>
<path d="M72.3811 28.5666C72.3811 31.6614 70.7075 33.6498 68.1817 33.6498C67.5419 33.6829 66.9056 33.537 66.3457 33.2289C65.7858 32.9207 65.3248 32.4628 65.0156 31.9074H64.9679V36.8402H62.9023V23.5865H64.9016V25.2429H64.9396C65.263 24.6902 65.7317 24.2346 66.2959 23.9246C66.8601 23.6146 67.4987 23.4617 68.1437 23.4823C70.6977 23.4823 72.3811 25.4803 72.3811 28.5666ZM70.2581 28.5666C70.2581 26.5503 69.2053 25.2247 67.5989 25.2247C66.0207 25.2247 64.9592 26.5782 64.9592 28.5666C64.9592 30.5732 66.0207 31.9171 67.5989 31.9171C69.2053 31.9171 70.2581 30.6012 70.2581 28.5666H70.2581Z" fill="white"/>
<path d="M79.7003 29.7398C79.8534 31.0944 81.183 31.9838 82.9999 31.9838C84.7409 31.9838 85.9934 31.0944 85.9934 29.873C85.9934 28.8127 85.238 28.1779 83.4493 27.7428L81.6606 27.3163C79.1262 26.7105 77.9496 25.5374 77.9496 23.6339C77.9496 21.2771 80.0249 19.6582 82.9717 19.6582C85.8881 19.6582 87.8875 21.2771 87.9548 23.6339H85.8697C85.7449 22.2707 84.6063 21.4479 82.9424 21.4479C81.2785 21.4479 80.1399 22.2804 80.1399 23.4921C80.1399 24.4578 80.8671 25.0261 82.6461 25.4611L84.1667 25.8306C86.9985 26.4934 88.1751 27.6192 88.1751 29.6173C88.1751 32.1728 86.1182 33.7734 82.8468 33.7734C79.786 33.7734 77.7194 32.2104 77.5859 29.7397L79.7003 29.7398Z" fill="white"/>
<path d="M92.6321 21.23V23.5868H94.5457V25.2057H92.6321V30.696C92.6321 31.5489 93.0153 31.9464 93.8565 31.9464C94.0836 31.9425 94.3104 31.9267 94.5359 31.8991V33.5083C94.1577 33.5782 93.7733 33.6099 93.3887 33.6028C91.3514 33.6028 90.5569 32.8455 90.5569 30.914V25.2057H89.0938V23.5868H90.5568V21.23H92.6321Z" fill="white"/>
<path d="M95.6523 28.5669C95.6523 25.4334 97.517 23.4644 100.425 23.4644C103.342 23.4644 105.198 25.4334 105.198 28.5669C105.198 31.709 103.352 33.6694 100.425 33.6694C97.4985 33.6694 95.6523 31.709 95.6523 28.5669ZM103.094 28.5669C103.094 26.4174 102.098 25.1487 100.425 25.1487C98.7511 25.1487 97.7569 26.4271 97.7569 28.5669C97.7569 30.725 98.7511 31.984 100.425 31.984C102.098 31.984 103.094 30.725 103.094 28.5669H103.094Z" fill="white"/>
<path d="M106.902 23.5869H108.872V25.282H108.92C109.053 24.7526 109.367 24.2847 109.808 23.957C110.248 23.6294 110.79 23.4619 111.341 23.4827C111.579 23.4819 111.816 23.5075 112.048 23.559V25.4711C111.748 25.3802 111.434 25.3385 111.12 25.3475C110.82 25.3355 110.521 25.3879 110.243 25.501C109.966 25.6142 109.716 25.7855 109.511 26.0032C109.307 26.2209 109.153 26.4798 109.059 26.7621C108.965 27.0444 108.934 27.3435 108.968 27.6388V33.546H106.902L106.902 23.5869Z" fill="white"/>
<path d="M121.573 30.6208C121.295 32.4287 119.516 33.6694 117.24 33.6694C114.313 33.6694 112.496 31.7283 112.496 28.6142C112.496 25.4903 114.323 23.4644 117.154 23.4644C119.938 23.4644 121.688 25.3571 121.688 28.3768V29.0771H114.581V29.2007C114.548 29.5672 114.595 29.9364 114.717 30.2839C114.84 30.6313 115.035 30.9489 115.291 31.2157C115.547 31.4825 115.858 31.6924 116.202 31.8313C116.546 31.9703 116.917 32.0351 117.288 32.0216C117.776 32.0668 118.266 31.955 118.685 31.7026C119.103 31.4502 119.429 31.0708 119.612 30.6208L121.573 30.6208ZM114.591 27.6484H119.622C119.64 27.3189 119.59 26.9891 119.473 26.6798C119.357 26.3704 119.177 26.0882 118.946 25.8509C118.714 25.6136 118.435 25.4262 118.127 25.3005C117.818 25.1749 117.487 25.1137 117.154 25.1208C116.817 25.1188 116.484 25.1828 116.172 25.309C115.861 25.4352 115.578 25.6212 115.34 25.8562C115.102 26.0912 114.913 26.3705 114.784 26.6782C114.656 26.9858 114.59 27.3155 114.591 27.6484V27.6484Z" fill="white"/>
<path d="M42.04 9.60413C42.473 9.57337 42.9076 9.63812 43.3123 9.79369C43.7169 9.94927 44.0817 10.1918 44.3802 10.5038C44.6787 10.8158 44.9036 11.1894 45.0385 11.5978C45.1734 12.0062 45.2151 12.4392 45.1605 12.8655C45.1605 14.9623 44.0154 16.1677 42.04 16.1677H39.6445V9.60413H42.04ZM40.6746 15.2394H41.9249C42.2344 15.2577 42.544 15.2075 42.8314 15.0924C43.1187 14.9774 43.3765 14.8003 43.586 14.5742C43.7955 14.3481 43.9515 14.0786 44.0424 13.7853C44.1334 13.492 44.1572 13.1823 44.112 12.8788C44.1539 12.5765 44.1277 12.2688 44.0354 11.9776C43.943 11.6865 43.7867 11.4192 43.5777 11.1949C43.3686 10.9706 43.1121 10.7948 42.8263 10.6801C42.5406 10.5654 42.2328 10.5148 41.9249 10.5317H40.6746V15.2394Z" fill="white"/>
<path d="M46.3237 13.6887C46.2922 13.3632 46.3298 13.0347 46.4341 12.7245C46.5384 12.4142 46.7071 12.1289 46.9293 11.8869C47.1515 11.6449 47.4224 11.4516 47.7246 11.3193C48.0267 11.187 48.3535 11.1187 48.6839 11.1187C49.0143 11.1187 49.341 11.187 49.6432 11.3193C49.9453 11.4516 50.2162 11.6449 50.4384 11.8869C50.6606 12.1289 50.8293 12.4142 50.9336 12.7245C51.0379 13.0347 51.0755 13.3632 51.044 13.6887C51.0761 14.0145 51.0389 14.3434 50.9349 14.6542C50.8309 14.9649 50.6623 15.2507 50.44 15.4932C50.2178 15.7357 49.9467 15.9294 49.6442 16.062C49.3418 16.1946 49.0146 16.2631 48.6839 16.2631C48.3531 16.2631 48.0259 16.1946 47.7235 16.062C47.421 15.9294 47.15 15.7357 46.9277 15.4932C46.7054 15.2507 46.5368 14.9649 46.4328 14.6542C46.3288 14.3434 46.2916 14.0145 46.3237 13.6887ZM50.0281 13.6887C50.0281 12.615 49.5408 11.9871 48.6855 11.9871C47.8269 11.9871 47.344 12.615 47.344 13.6887C47.344 14.771 47.827 15.394 48.6855 15.394C49.5408 15.394 50.0281 14.7666 50.0281 13.6887H50.0281Z" fill="white"/>
<path d="M57.3194 16.1676H56.2948L55.2604 12.5195H55.1822L54.1522 16.1676H53.1373L51.7578 11.2144H52.7596L53.6562 14.994H53.73L54.7589 11.2144H55.7065L56.7354 14.994H56.8136L57.7058 11.2144H58.6935L57.3194 16.1676Z" fill="white"/>
<path d="M59.8516 11.2143H60.8024V12.0011H60.8762C61.0014 11.7185 61.2126 11.4816 61.4803 11.3234C61.748 11.1652 62.0589 11.0936 62.3697 11.1186C62.6132 11.1005 62.8577 11.1369 63.0851 11.225C63.3125 11.3131 63.517 11.4507 63.6833 11.6276C63.8497 11.8045 63.9737 12.0163 64.0462 12.2471C64.1186 12.4779 64.1377 12.7218 64.102 12.9609V16.1674H63.1143V13.2064C63.1143 12.4104 62.7648 12.0146 62.0343 12.0146C61.869 12.0069 61.7039 12.0348 61.5505 12.0962C61.397 12.1576 61.2588 12.2511 61.1453 12.3704C61.0318 12.4896 60.9457 12.6317 60.8929 12.7869C60.84 12.9422 60.8218 13.1069 60.8393 13.2698V16.1675H59.8516L59.8516 11.2143Z" fill="white"/>
<path d="M65.6758 9.28076H66.6635V16.1676H65.6758V9.28076Z" fill="white"/>
<path d="M68.0385 13.6888C68.007 13.3632 68.0447 13.0348 68.149 12.7245C68.2533 12.4142 68.422 12.1289 68.6443 11.8869C68.8665 11.645 69.1374 11.4516 69.4396 11.3193C69.7417 11.187 70.0685 11.1187 70.3989 11.1187C70.7294 11.1187 71.0561 11.187 71.3583 11.3193C71.6605 11.4516 71.9313 11.645 72.1536 11.8869C72.3758 12.1289 72.5445 12.4142 72.6489 12.7245C72.7532 13.0348 72.7908 13.3632 72.7594 13.6888C72.7914 14.0146 72.7542 14.3435 72.6501 14.6543C72.5461 14.9651 72.3775 15.2508 72.1552 15.4933C71.9329 15.7357 71.6618 15.9295 71.3593 16.0621C71.0569 16.1946 70.7297 16.2631 70.3989 16.2631C70.0681 16.2631 69.741 16.1946 69.4385 16.0621C69.1361 15.9295 68.865 15.7357 68.6427 15.4933C68.4204 15.2508 68.2518 14.9651 68.1477 14.6543C68.0437 14.3435 68.0064 14.0146 68.0385 13.6888ZM71.7429 13.6888C71.7429 12.6151 71.2556 11.9872 70.4003 11.9872C69.5417 11.9872 69.0588 12.6151 69.0588 13.6888C69.0588 14.7711 69.5418 15.3941 70.4003 15.3941C71.2556 15.3941 71.7429 14.7667 71.7429 13.6888H71.7429Z" fill="white"/>
<path d="M73.8008 14.7667C73.8008 13.8751 74.4716 13.3611 75.6622 13.288L77.0179 13.2107V12.7832C77.0179 12.26 76.6684 11.9646 75.9933 11.9646C75.4419 11.9646 75.0598 12.1649 74.9502 12.5151H73.994C74.0949 11.6644 74.9035 11.1187 76.0389 11.1187C77.2936 11.1187 78.0013 11.7369 78.0013 12.7832V16.1675H77.0505V15.4714H76.9723C76.8137 15.7211 76.5909 15.9246 76.3268 16.0613C76.0627 16.1979 75.7667 16.2627 75.469 16.2491C75.2589 16.2707 75.0466 16.2485 74.8457 16.184C74.6448 16.1194 74.4598 16.0139 74.3026 15.8742C74.1454 15.7345 74.0196 15.5638 73.9331 15.3731C73.8467 15.1823 73.8016 14.9757 73.8008 14.7667ZM77.0179 14.3434V13.9293L75.7957 14.0067C75.1065 14.0523 74.7939 14.2844 74.7939 14.721C74.7939 15.1668 75.1846 15.4263 75.722 15.4263C75.8794 15.442 76.0384 15.4263 76.1896 15.38C76.3407 15.3337 76.481 15.2578 76.6019 15.1567C76.7228 15.0557 76.8219 14.9317 76.8934 14.7919C76.9649 14.6522 77.0072 14.4997 77.0179 14.3434Z" fill="white"/>
<path d="M79.2969 13.6888C79.2969 12.1237 80.1098 11.1322 81.3743 11.1322C81.6871 11.1179 81.9975 11.1921 82.2693 11.346C82.5411 11.4998 82.763 11.7271 82.9091 12.0012H82.9829V9.28076H83.9706V16.1676H83.0241V15.385H82.946C82.7886 15.6572 82.559 15.8817 82.2819 16.034C82.0049 16.1863 81.691 16.2608 81.3743 16.2492C80.1012 16.2493 79.2969 15.2577 79.2969 13.6888ZM80.3172 13.6888C80.3172 14.7394 80.8176 15.3716 81.6544 15.3716C82.4869 15.3716 83.0014 14.7303 83.0014 13.6931C83.0014 12.6608 82.4815 12.0104 81.6544 12.0104C80.8229 12.0104 80.3171 12.6468 80.3171 13.6888H80.3172Z" fill="white"/>
<path d="M88.058 13.6889C88.0266 13.3634 88.0642 13.035 88.1685 12.7247C88.2728 12.4144 88.4415 12.1291 88.6637 11.8872C88.8859 11.6452 89.1568 11.4518 89.4589 11.3195C89.7611 11.1872 90.0878 11.1189 90.4182 11.1189C90.7486 11.1189 91.0754 11.1872 91.3775 11.3195C91.6797 11.4518 91.9505 11.6452 92.1728 11.8872C92.395 12.1291 92.5637 12.4144 92.668 12.7247C92.7723 13.035 92.8099 13.3634 92.7784 13.6889C92.8105 14.0148 92.7733 14.3436 92.6693 14.6544C92.5653 14.9652 92.3967 15.251 92.1744 15.4934C91.9521 15.7359 91.6811 15.9296 91.3786 16.0622C91.0762 16.1948 90.749 16.2633 90.4182 16.2633C90.0874 16.2633 89.7603 16.1948 89.4579 16.0622C89.1554 15.9296 88.8843 15.7359 88.662 15.4934C88.4398 15.251 88.2712 14.9652 88.1672 14.6544C88.0632 14.3436 88.026 14.0148 88.058 13.6889ZM91.7625 13.6889C91.7625 12.6152 91.2751 11.9874 90.4199 11.9874C89.5613 11.9874 89.0783 12.6152 89.0783 13.6889C89.0783 14.7712 89.5613 15.3942 90.4199 15.3942C91.2752 15.3942 91.7625 14.7669 91.7625 13.6889Z" fill="white"/>
<path d="M94.1055 11.2143H95.0563V12.0011H95.1301C95.2553 11.7185 95.4665 11.4816 95.7342 11.3234C96.0019 11.1652 96.3128 11.0936 96.6236 11.1186C96.8671 11.1005 97.1116 11.1369 97.339 11.225C97.5664 11.3131 97.7709 11.4507 97.9372 11.6276C98.1036 11.8045 98.2276 12.0163 98.3001 12.2471C98.3726 12.4779 98.3916 12.7218 98.3559 12.9609V16.1674H97.3682V13.2064C97.3682 12.4104 97.0187 12.0146 96.2882 12.0146C96.1229 12.0069 95.9578 12.0348 95.8044 12.0962C95.6509 12.1576 95.5127 12.2511 95.3992 12.3704C95.2857 12.4896 95.1996 12.6317 95.1468 12.7869C95.0939 12.9422 95.0757 13.1069 95.0932 13.2698V16.1675H94.1055V11.2143Z" fill="white"/>
<path d="M103.936 9.98096V11.2367H105.02V12.0601H103.936V14.6071C103.936 15.1259 104.152 15.3531 104.643 15.3531C104.769 15.3527 104.895 15.3452 105.02 15.3306V16.1448C104.843 16.1762 104.663 16.1929 104.483 16.1948C103.384 16.1948 102.947 15.8123 102.947 14.8574V12.0601H102.152V11.2367H102.947V9.98096H103.936Z" fill="white"/>
<path d="M106.367 9.28076H107.346V12.0104H107.424C107.556 11.7251 107.773 11.4869 108.046 11.3281C108.319 11.1693 108.635 11.0977 108.95 11.1231C109.193 11.11 109.435 11.15 109.66 11.2403C109.884 11.3305 110.086 11.4688 110.251 11.6451C110.416 11.8215 110.539 12.0317 110.612 12.2606C110.685 12.4896 110.706 12.7317 110.674 12.9696V16.1676H109.685V13.2108C109.685 12.4196 109.313 12.0189 108.615 12.0189C108.445 12.0052 108.275 12.0283 108.115 12.0866C107.955 12.145 107.81 12.2372 107.69 12.3568C107.57 12.4764 107.478 12.6205 107.42 12.7791C107.362 12.9376 107.34 13.1068 107.355 13.2747V16.1676H106.367L106.367 9.28076Z" fill="white"/>
<path d="M116.435 14.8302C116.301 15.2829 116.01 15.6744 115.614 15.9364C115.218 16.1984 114.741 16.314 114.267 16.2632C113.937 16.2718 113.609 16.2093 113.307 16.08C113.004 15.9507 112.733 15.7577 112.513 15.5145C112.293 15.2712 112.129 14.9835 112.033 14.6713C111.936 14.3591 111.91 14.0299 111.955 13.7065C111.911 13.3822 111.938 13.0522 112.034 12.7391C112.13 12.426 112.293 12.1369 112.512 11.8915C112.731 11.6461 113 11.4502 113.302 11.3168C113.604 11.1835 113.932 11.1159 114.262 11.1187C115.655 11.1187 116.495 12.0603 116.495 13.6157V13.9568H112.961V14.0116C112.946 14.1934 112.969 14.3763 113.029 14.5488C113.089 14.7212 113.185 14.8793 113.31 15.0129C113.436 15.1465 113.588 15.2527 113.758 15.3246C113.927 15.3965 114.11 15.4326 114.294 15.4306C114.53 15.4587 114.77 15.4166 114.982 15.3097C115.194 15.2027 115.369 15.0358 115.485 14.8301L116.435 14.8302ZM112.961 13.2339H115.489C115.501 13.0676 115.479 12.9007 115.422 12.7437C115.365 12.5867 115.276 12.4431 115.16 12.3223C115.044 12.2015 114.904 12.106 114.748 12.042C114.593 11.978 114.425 11.9469 114.257 11.9507C114.086 11.9486 113.917 11.9803 113.758 12.0441C113.6 12.1078 113.456 12.2023 113.336 12.3218C113.215 12.4414 113.12 12.5837 113.055 12.7404C112.991 12.897 112.959 13.0648 112.961 13.2339H112.961Z" fill="white"/>
</g>
<defs>
<clipPath id="clip0_1_790">
<rect width="133" height="44" fill="white"/>
</clipPath>
</defs>
</svg>
