<svg width="16" height="16" viewBox="0 0 16 16" fill="none" xmlns="http://www.w3.org/2000/svg">
<g clip-path="url(#clip0_1_874)">
<path fill-rule="evenodd" clip-rule="evenodd" d="M7.70226 1.52121C7.87583 1.35679 8.14983 1.36421 8.31425 1.53778C11.707 5.11946 11.707 10.8805 8.31425 14.4622C8.14983 14.6358 7.87583 14.6432 7.70226 14.4788C7.52868 14.3144 7.52126 14.0404 7.68568 13.8668C10.7622 10.619 10.7622 5.38095 7.68568 2.1332C7.52126 1.95962 7.52868 1.68563 7.70226 1.52121Z" fill="#CBD5E1"/>
<path fill-rule="evenodd" clip-rule="evenodd" d="M8.29774 1.52121C8.47131 1.68563 8.47873 1.95962 8.31432 2.1332C5.23784 5.38095 5.23784 10.619 8.31432 13.8668C8.47873 14.0404 8.47131 14.3144 8.29774 14.4788C8.12417 14.6432 7.85017 14.6358 7.68575 14.4622C4.29296 10.8805 4.29296 5.11946 7.68575 1.53778C7.85017 1.36421 8.12417 1.35679 8.29774 1.52121Z" fill="#CBD5E1"/>
<path fill-rule="evenodd" clip-rule="evenodd" d="M7.56709 1.76615C7.56709 1.52707 7.76091 1.33325 7.99999 1.33325C11.6884 1.33325 14.6667 4.31148 14.6667 7.99992C14.6667 11.6884 11.6884 14.6666 7.99999 14.6666C7.76091 14.6666 7.56709 14.4728 7.56709 14.2337C7.56709 13.9946 7.76091 13.8008 7.99999 13.8008C11.2103 13.8008 13.8009 11.2102 13.8009 7.99992C13.8009 4.78965 11.2103 2.19905 7.99999 2.19905C7.76091 2.19905 7.56709 2.00524 7.56709 1.76615Z" fill="#CBD5E1"/>
<path fill-rule="evenodd" clip-rule="evenodd" d="M7.99999 2.19905C4.78973 2.19905 2.19913 4.78965 2.19913 7.99992C2.19913 11.2102 4.78973 13.8008 7.99999 13.8008C8.23908 13.8008 8.4329 13.9946 8.4329 14.2337C8.4329 14.4728 8.23908 14.6666 7.99999 14.6666C4.31156 14.6666 1.33333 11.6884 1.33333 7.99992C1.33333 4.31148 4.31156 1.33325 7.99999 1.33325C8.23908 1.33325 8.4329 1.52707 8.4329 1.76615C8.4329 2.00524 8.23908 2.19905 7.99999 2.19905Z" fill="#CBD5E1"/>
<path fill-rule="evenodd" clip-rule="evenodd" d="M1.68658 5.92191C1.68658 5.68283 1.8804 5.48901 2.11948 5.48901H13.8805C14.1196 5.48901 14.3134 5.68283 14.3134 5.92191C14.3134 6.161 14.1196 6.35481 13.8805 6.35481H2.11948C1.8804 6.35481 1.68658 6.161 1.68658 5.92191Z" fill="#CBD5E1"/>
<path fill-rule="evenodd" clip-rule="evenodd" d="M1.68658 10.0779C1.68658 9.83884 1.8804 9.64502 2.11948 9.64502H13.8805C14.1196 9.64502 14.3134 9.83884 14.3134 10.0779C14.3134 10.317 14.1196 10.5108 13.8805 10.5108H2.11948C1.8804 10.5108 1.68658 10.317 1.68658 10.0779Z" fill="#CBD5E1"/>
</g>
<defs>
<clipPath id="clip0_1_874">
<rect width="16" height="16" fill="white"/>
</clipPath>
</defs>
</svg>
