<svg width="20" height="20" viewBox="0 0 20 20" fill="none" xmlns="http://www.w3.org/2000/svg">
<path d="M10.0013 1.6665C12.2655 1.6665 12.548 1.67484 13.4363 1.7165C14.3238 1.75817 14.928 1.89734 15.4596 2.104C16.0096 2.31567 16.473 2.60234 16.9363 3.06484C17.36 3.48142 17.6879 3.98533 17.8971 4.5415C18.103 5.07234 18.243 5.67734 18.2846 6.56484C18.3238 7.45317 18.3346 7.73567 18.3346 9.99984C18.3346 12.264 18.3263 12.5465 18.2846 13.4348C18.243 14.3223 18.103 14.9265 17.8971 15.4582C17.6885 16.0146 17.3606 16.5187 16.9363 16.9348C16.5196 17.3584 16.0157 17.6863 15.4596 17.8957C14.9288 18.1015 14.3238 18.2415 13.4363 18.2832C12.548 18.3223 12.2655 18.3332 10.0013 18.3332C7.73713 18.3332 7.45463 18.3248 6.5663 18.2832C5.6788 18.2415 5.07463 18.1015 4.54297 17.8957C3.98657 17.6869 3.48257 17.359 3.0663 16.9348C2.64247 16.5183 2.31458 16.0144 2.10547 15.4582C1.8988 14.9273 1.75964 14.3223 1.71797 13.4348C1.6788 12.5465 1.66797 12.264 1.66797 9.99984C1.66797 7.73567 1.6763 7.45317 1.71797 6.56484C1.75964 5.6765 1.8988 5.07317 2.10547 4.5415C2.314 3.98499 2.64197 3.48094 3.0663 3.06484C3.48269 2.64086 3.98666 2.31294 4.54297 2.104C5.07463 1.89734 5.67797 1.75817 6.5663 1.7165C7.45463 1.67734 7.73713 1.6665 10.0013 1.6665ZM10.0013 5.83317C8.89623 5.83317 7.83642 6.27216 7.05502 7.05356C6.27362 7.83496 5.83463 8.89477 5.83463 9.99984C5.83463 11.1049 6.27362 12.1647 7.05502 12.9461C7.83642 13.7275 8.89623 14.1665 10.0013 14.1665C11.1064 14.1665 12.1662 13.7275 12.9476 12.9461C13.729 12.1647 14.168 11.1049 14.168 9.99984C14.168 8.89477 13.729 7.83496 12.9476 7.05356C12.1662 6.27216 11.1064 5.83317 10.0013 5.83317ZM15.418 5.62484C15.418 5.34857 15.3082 5.08362 15.1129 4.88827C14.9175 4.69292 14.6526 4.58317 14.3763 4.58317C14.1 4.58317 13.8351 4.69292 13.6397 4.88827C13.4444 5.08362 13.3346 5.34857 13.3346 5.62484C13.3346 5.9011 13.4444 6.16606 13.6397 6.36141C13.8351 6.55676 14.1 6.6665 14.3763 6.6665C14.6526 6.6665 14.9175 6.55676 15.1129 6.36141C15.3082 6.16606 15.418 5.9011 15.418 5.62484ZM10.0013 7.49984C10.6643 7.49984 11.3002 7.76323 11.7691 8.23207C12.2379 8.70091 12.5013 9.33679 12.5013 9.99984C12.5013 10.6629 12.2379 11.2988 11.7691 11.7676C11.3002 12.2364 10.6643 12.4998 10.0013 12.4998C9.33826 12.4998 8.70237 12.2364 8.23353 11.7676C7.76469 11.2988 7.5013 10.6629 7.5013 9.99984C7.5013 9.33679 7.76469 8.70091 8.23353 8.23207C8.70237 7.76323 9.33826 7.49984 10.0013 7.49984Z" fill="#94A3B8"/>
</svg>
