<svg width="20" height="20" viewBox="0 0 20 20" fill="none" xmlns="http://www.w3.org/2000/svg">
<g clip-path="url(#clip0_1_847)">
<path d="M14.8624 1.6665H5.14019C3.22283 1.6665 1.66797 3.22136 1.66797 5.13873V14.8609C1.66797 16.7783 3.22283 18.3332 5.14019 18.3332H14.8624C16.7805 18.3332 18.3346 16.7783 18.3346 14.8609V5.13873C18.3346 3.22136 16.7805 1.6665 14.8624 1.6665ZM7.22352 14.8609H5.14019V7.22206H7.22352V14.8609ZM6.18186 6.3415C5.51102 6.3415 4.96658 5.79289 4.96658 5.1165C4.96658 4.44011 5.51102 3.8915 6.18186 3.8915C6.85269 3.8915 7.39713 4.44011 7.39713 5.1165C7.39713 5.79289 6.85338 6.3415 6.18186 6.3415ZM15.5569 14.8609H13.4735V10.9693C13.4735 8.63039 10.6957 8.80748 10.6957 10.9693V14.8609H8.61241V7.22206H10.6957V8.44775C11.6652 6.65192 15.5569 6.51928 15.5569 10.1672V14.8609Z" fill="#94A3B8"/>
</g>
<defs>
<clipPath id="clip0_1_847">
<rect width="16.6667" height="16.6667" fill="white" transform="translate(1.66797 1.6665)"/>
</clipPath>
</defs>
</svg>
