<svg width="20" height="20" viewBox="0 0 20 20" fill="none" xmlns="http://www.w3.org/2000/svg">
<g clip-path="url(#clip0_1_854)">
<path d="M14.3724 1.66406H5.6276C3.4401 1.66406 1.66406 3.4401 1.66406 5.6276V14.3724C1.66406 16.5599 3.4349 18.3359 5.6276 18.3359H14.3724C16.5599 18.3359 18.3359 16.5651 18.3359 14.3724V5.6276C18.3359 3.4401 16.5599 1.66406 14.3724 1.66406ZM15.0339 8.71615C13.1484 8.67448 12.0443 7.72656 12.0443 7.72656V12.2318C11.9453 14.2839 10.2526 15.8932 8.20052 15.8932C6.07552 15.8932 4.35156 14.1693 4.35156 12.0443C4.35156 9.91927 6.07552 8.19531 8.20052 8.19531C8.41406 8.19531 8.63281 8.21615 8.84635 8.2474L8.82552 10.5286C8.63281 10.4609 8.4349 10.4245 8.23177 10.4245C7.26823 10.4245 6.48698 11.2057 6.48698 12.1693C6.48698 13.1328 7.26823 13.9141 8.23177 13.9141C9.15885 13.9141 9.92448 13.1901 9.97135 12.263V3.61719H11.9818C11.9818 3.61719 11.9245 6.35677 15.0391 6.65365V8.71615H15.0339Z" fill="#94A3B8"/>
</g>
<defs>
<clipPath id="clip0_1_854">
<rect width="16.6667" height="16.6667" fill="white" transform="translate(1.66797 1.6665)"/>
</clipPath>
</defs>
</svg>
